<?xml version="1.0" standalone="no"?>
<!DOCTYPE svg PUBLIC "-//W3C//DTD SVG 20010904//EN"
 "http://www.w3.org/TR/2001/REC-SVG-20010904/DTD/svg10.dtd">
<svg version="1.0" xmlns="http://www.w3.org/2000/svg"
 width="690.000000pt" height="690.000000pt" viewBox="0 0 690.000000 690.000000"
 preserveAspectRatio="xMidYMid meet">
<metadata>
Created by potrace 1.14, written by Peter Selinger 2001-2017
</metadata>
<g transform="translate(0.000000,690.000000) scale(0.100000,-0.100000)"
fill="#000000" stroke="none">
<path d="M3658 6877 c-84 -29 -162 -82 -233 -159 -51 -55 -74 -87 -183 -258
-23 -36 -86 -135 -141 -220 -183 -283 -232 -369 -261 -453 -28 -79 -32 -100
-49 -229 -11 -88 -3 -297 14 -368 0 -3 4 -27 9 -55 42 -271 239 -779 425
-1093 17 -29 31 -55 31 -57 0 -7 152 -250 164 -263 10 -10 27 9 86 100 41 62
196 298 345 523 258 389 345 522 733 1110 91 138 247 374 347 525 294 444 590
894 599 908 6 9 -178 12 -906 12 l-913 -1 -67 -22z"/>
<path d="M2374 5148 c-59 -90 -230 -347 -379 -573 -665 -1004 -657 -992 -670
-1055 -11 -52 -6 -117 12 -170 12 -35 121 -208 294 -470 264 -398 439 -662
904 -1365 428 -647 670 -1013 760 -1150 132 -199 228 -286 371 -336 56 -20 79
-20 953 -20 493 0 906 0 919 1 23 0 -83 161 -1827 2765 -239 358 -450 673
-468 700 -18 28 -37 57 -43 65 -167 245 -375 633 -488 910 -69 169 -152 420
-168 505 -2 11 -10 52 -18 90 -18 85 -24 122 -32 200 -3 33 -7 61 -9 63 -2 2
-52 -70 -111 -160z"/>
<path d="M5575 4490 c0 -435 3 -790 7 -790 5 0 8 356 8 790 0 435 -3 790 -7
790 -5 0 -8 -356 -8 -790z"/>
</g>
</svg>
