<?xml version="1.0" encoding="utf-8"?>
<!-- Generator: Adobe Illustrator 22.1.0, SVG Export Plug-In . SVG Version: 6.00 Build 0)  -->
<svg version="1.1" id="Ebene_1" xmlns="http://www.w3.org/2000/svg" xmlns:xlink="http://www.w3.org/1999/xlink" x="0px" y="0px"
	 viewBox="0 0 143.9 58.9" style="enable-background:new 0 0 143.9 58.9;" xml:space="preserve">
<style type="text/css">
	.st0{fill:#78AF1E;}
</style>
<title>AKAD-Logo-Claim-rgb</title>
<path class="st0" d="M31.3,27.2H0L19,0l21,30L55.4,8.9l-13,3.5l-1.5-4.9l24-7v24.4h-5.3l0-12.2L40,39.7L31.3,27.2z M10.6,21.8h17
	L19,9.6L10.6,21.8z"/>
<path d="M64.9,32.1l3.2-3.2c0.8-0.8,2-2,3.2-2v-0.3h-4.7v0.3c0.6,0,1.2,0,1.2,0.6c0,0.2-0.1,0.4-0.3,0.6c-1.4,1.4-4.4,4.3-4.4,4.3
	v-3.6c0-1.6-0.1-1.8,1.7-1.8v-0.3h-5.3v0.3c1.8,0,1.7,0.5,1.7,2v7.6c0,1.6,0,2-1.8,2V39h5.4v-0.3c-1.6,0-1.7-0.3-1.7-1.8v-3.8
	l3.9,3.8c0.3,0.3,0.8,0.7,0.8,1.2c0,0.4-0.6,0.6-1,0.6V39h6v-0.3c-1.5-0.1-2.7-1.2-3.7-2.2L64.9,32.1z"/>
<path d="M89.6,27.7c0.6-0.2,1.2-0.3,1.8-0.3c3.2,0,4.9,2.4,4.9,5.4c0,2.9-1.7,5.4-4.8,5.4c-0.6,0-1.3-0.1-1.9-0.2V27.7z M87.6,36.5
	c0,1.5,0,2.2-1.7,2.2V39h5.7c4.4,0,7-2.5,6.9-6.4c0.1-2.1-0.9-4.1-2.7-5.1c-1.4-1-3.5-0.9-5.2-0.9h-4.7v0.3c1.7,0,1.7,0.5,1.7,2
	L87.6,36.5z"/>
<path d="M50,34.9h4.7l0.7,1.5c0.2,0.4,0.4,0.9,0.5,1.4c0,0.7-0.5,0.8-1.3,0.8V39h5v-0.3c-0.5,0-1.1-0.2-1.4-0.7
	c-0.2-0.3-5.3-11.6-5.3-11.6h-0.3L48,36.8c-0.6,1.3-1,1.8-2,1.9V39h4v-0.3c-0.7-0.1-1.2-0.2-1.2-0.8c0.1-0.4,0.2-0.9,0.4-1.3
	L50,34.9z M52.4,29.5l1.9,4.6h-4L52.4,29.5z"/>
<path d="M76.7,34.9h4.7l0.7,1.5c0.2,0.4,0.4,0.9,0.5,1.4c0,0.7-0.5,0.8-1.3,0.8V39h5v-0.3c-0.5,0-1.1-0.2-1.4-0.7
	c-0.2-0.3-5.3-11.6-5.3-11.6h-0.3l-4.5,10.4c-0.6,1.3-1,1.8-2,1.9V39h4v-0.3c-0.7-0.1-1.2-0.2-1.2-0.8c0.1-0.4,0.2-0.9,0.4-1.3
	L76.7,34.9z M79.1,29.5l1.9,4.6h-4L79.1,29.5z"/>
<path d="M47.1,50.6h2.3l1.4,4.7l1.5-4.7h2.2v6.5h-1.4v-5.6l-1.8,5.6h-1.1l-1.7-5.6v5.6h-1.3L47.1,50.6z"/>
<path d="M55.6,50.6H57v1.2h-1.4V50.6z M55.6,52.6h1.3v4.5h-1.3L55.6,52.6z"/>
<path d="M60.7,57c-0.3,0.1-0.7,0.1-1,0.1c-1.3,0-1.3-0.8-1.3-1.2v-2.5h-0.9v-0.9h0.9v-0.9l1.3-0.5v1.4h1.1v0.9h-1.1v2
	c0,0.4,0,0.7,0.6,0.7c0.2,0,0.3,0,0.4,0L60.7,57z"/>
<path d="M64,50.6h2.4c0.6,0,1.1,0.1,1.6,0.3c0.5,0.3,0.7,0.8,0.7,1.4c0,0.4-0.1,0.7-0.4,1c-0.2,0.2-0.5,0.4-0.7,0.4v0
	c0.8,0.1,1.4,0.8,1.4,1.6c0,0.7-0.4,1.2-1,1.5c-0.5,0.2-1.1,0.3-1.6,0.3H64V50.6z M65.4,53.3h1c0.4,0,1.1,0,1.1-0.8
	c0-0.8-0.7-0.8-1.1-0.8h-0.9V53.3z M65.4,56.1h0.9c0.6,0,1.4,0,1.4-0.9c0-0.9-0.8-0.9-1.5-0.9h-0.8L65.4,56.1z"/>
<path d="M69.9,50.6h1.4v1.2h-1.4V50.6z M70,52.6h1.3v4.5H70V52.6z"/>
<path d="M72.4,50.6h1.3v6.5h-1.3V50.6z"/>
<path d="M77.9,50.6h1.3v5.7c0,0.3,0,0.6,0,0.7h-1.3l0-0.7c-0.1,0.2-0.3,0.4-0.5,0.5c-0.3,0.2-0.6,0.2-0.9,0.2
	c-1.2,0-1.9-0.8-1.9-2.3c0-1.5,0.8-2.4,2-2.4c0.5,0,1,0.2,1.3,0.6V50.6z M76.9,56.3c0.4,0,0.7-0.2,0.8-0.5c0.2-0.3,0.2-0.7,0.2-1.1
	c0-0.9-0.4-1.4-1-1.4c-0.9,0-1,1.1-1,1.5C76,55.7,76.2,56.3,76.9,56.3z"/>
<path d="M81.7,52.6v2.7c0,0.4,0,1,0.7,1c0.9,0,0.9-0.6,0.9-1.4v-2.3h1.4v3c0,1,0,1.1,0,1.2s0,0.2,0,0.3h-1.3l0-0.6
	C83,57,82.5,57.2,82,57.2c-0.5,0-1-0.2-1.4-0.6c-0.2-0.4-0.3-0.8-0.3-1.2v-2.8H81.7z"/>
<path d="M85.8,53.4c0,0,0-0.5,0-0.8h1.3l0,0.7c0.3-0.5,0.9-0.8,1.5-0.8c0.6,0,1.2,0.3,1.4,0.9c0.1,0.4,0.2,0.9,0.1,1.4v2.5h-1.4
	v-2.8c0-0.2,0-0.3-0.1-0.5c-0.1-0.2-0.4-0.4-0.6-0.4c-0.3,0-0.5,0.1-0.7,0.3c-0.1,0.2-0.2,0.4-0.2,0.7v2.7h-1.3V53.4z"/>
<path d="M95.6,52.6c0,0.4-0.1,0.7-0.1,1.1V57c0,1.7-1.4,1.8-2.3,1.8c-0.6,0-1.9-0.1-2-1.5h1.3c0,0.1,0.1,0.6,0.8,0.6
	c0.4,0,0.7-0.2,0.8-0.6c0.1-0.4,0.1-0.7,0.1-1.1C93.9,56.8,93.5,57,93,57c-1.2-0.2-2.1-1.4-1.9-2.6c0.2-1,0.9-1.7,1.9-1.9
	c0.5,0,1,0.2,1.3,0.6l0-0.6L95.6,52.6z M93.3,56.1c0.9,0,0.9-1.1,0.9-1.3c0-0.5-0.1-1.4-0.9-1.4c-0.5,0-0.9,0.4-0.9,1.4
	C92.4,55,92.4,56.1,93.3,56.1z"/>
<path d="M98.9,55.9l2.3-2.5h-2.2v-0.9h3.7v1.1l-2.3,2.5h2.4v0.9h-3.9V55.9z"/>
<path d="M104.8,52.6v2.7c0,0.4,0,1,0.7,1c0.9,0,0.9-0.6,0.9-1.4v-2.3h1.4v3c0,1,0,1.1,0,1.2s0,0.2,0,0.3h-1.3l0-0.6
	c-0.3,0.5-0.8,0.7-1.3,0.7c-0.5,0-1-0.2-1.4-0.6c-0.2-0.4-0.3-0.8-0.3-1.2v-2.8H104.8z"/>
<path d="M108.9,53.4c0-0.3,0-0.6,0-0.9h1.3l0,0.6c0.3-0.5,0.8-0.7,1.4-0.7c0.6-0.1,1.2,0.3,1.4,0.9c0.3-0.6,0.8-0.9,1.5-0.8
	c0.6,0,1.1,0.2,1.4,0.7c0.2,0.4,0.3,0.9,0.2,1.3v2.6h-1.3v-2.7c0-0.5-0.1-1-0.8-1c-0.8,0-0.8,0.7-0.8,1.4v2.3h-1.3v-2.7
	c0-0.3,0-1-0.7-1c-0.8,0-0.8,0.7-0.8,1v2.7h-1.3L108.9,53.4z"/>
<path d="M119.9,50.6h4.3v1.1h-2.9v1.5h2.8v1.1h-2.8V56h3.1v1.1h-4.4L119.9,50.6z"/>
<path d="M125.3,53.7c0-0.2,0-0.9-0.1-1.1h1.2l0,0.9c0.2-0.6,0.9-1,1.5-0.9v1.2c-1.3-0.1-1.4,0.6-1.4,1.1v2.2h-1.3L125.3,53.7z"/>
<path d="M129,53.5h-0.7v-0.9h0.7v-0.6c0-0.8,0.3-1.4,1.6-1.4c0.2,0,0.5,0,0.7,0v0.9c-0.1,0-0.2,0-0.3,0c-0.7,0-0.7,0.4-0.7,0.6v0.5
	h0.8v0.9h-0.8v3.6H129L129,53.5z"/>
<path d="M133.8,52.5c1.2-0.1,2.3,0.8,2.4,2c0,0.1,0,0.2,0,0.4c0.1,1.2-0.8,2.3-2.1,2.4c-0.1,0-0.2,0-0.3,0c-1.2,0.1-2.2-0.8-2.3-2.1
	c0-0.1,0-0.2,0-0.3c-0.1-1.2,0.8-2.3,2-2.4C133.6,52.5,133.7,52.4,133.8,52.5z M133.9,56.3c0.6,0,1-0.3,1-1.6c0-0.6-0.1-1.4-1-1.4
	c-1,0-1,1.1-1,1.5C132.9,55.9,133.2,56.3,133.9,56.3z"/>
<path d="M137.2,50.6h1.3v6.5h-1.3V50.6z"/>
<path d="M143.9,52.6c0,0.4-0.1,0.7-0.1,1.1v3.3c0,1.7-1.4,1.8-2.3,1.8c-0.6,0-1.9-0.1-2-1.5h1.3c0,0.1,0.1,0.6,0.8,0.6
	c0.4,0,0.7-0.2,0.8-0.6c0.1-0.4,0.1-0.7,0.1-1.1c-0.3,0.4-0.7,0.6-1.2,0.6c-1.2-0.2-2.1-1.4-1.9-2.6c0.2-1,0.9-1.7,1.9-1.9
	c0.5,0,1,0.2,1.3,0.6l0-0.6L143.9,52.6z M141.6,56.1c0.9,0,0.9-1.1,0.9-1.3c0-0.5-0.1-1.4-0.9-1.4c-0.5,0-0.9,0.4-0.9,1.4
	C140.8,55,140.8,56.1,141.6,56.1z"/>
</svg>
