<svg id="Logo_Delta_Group" data-name="Logo Delta Group" xmlns="http://www.w3.org/2000/svg" width="194.269" height="41.615" viewBox="0 0 194.269 41.615">
  <path id="Path_13787" data-name="Path 13787" d="M221.776,75.98c.057,2.289-1.132,5.522-3.991,5.522-3,0-4.245-3-4.245-5.437,0-2.718,1.387-5.494,4.274-5.494s4.019,2.775,3.962,5.408m-10.9,13.362h2.66V81.33h.056c.821,1.345,2.264,2.346,4.812,2.346,4.358,0,6.2-3.891,6.2-7.9,0-3.92-2.038-7.382-6.226-7.382a5.759,5.759,0,0,0-4.9,2.4h-.056v-2.06H210.88Zm-4.672-20.6h-2.66v6.753c0,3.548-1.359,6.009-4.387,6.009-2.321-.143-3.057-1.8-3.057-5.208V68.741h-2.66v8.67c0,3.92,1.67,6.266,5.406,6.266a5.177,5.177,0,0,0,4.726-2.661h.057v2.318h2.576Zm-28.316,7.3c0-2.775,1.67-5.465,4.528-5.465,2.83,0,4.5,2.69,4.5,5.465,0,2.6-1.387,5.465-4.5,5.465-3.142,0-4.528-2.861-4.528-5.465m-2.83,0a7.35,7.35,0,1,0,14.688,0c0-4.435-2.943-7.64-7.33-7.64-4.415,0-7.358,3.2-7.358,7.64m-9.951,7.3h2.66V76.695c0-3.662,1.557-5.951,3.934-5.951a3.894,3.894,0,0,1,1.472.258V68.6a7.427,7.427,0,0,0-1.755-.2,4.392,4.392,0,0,0-3.764,2.6H167.6V68.741h-2.491Zm-11.55-2.174c-2.49,0-4.019-2.4-4.019-5.151,0-2.489,1.33-5.437,4.019-5.437,2.83,0,4.217,2.6,4.217,5.637,0,2.718-1.726,4.95-4.217,4.95m6.878-12.418h-2.462v2.174h-.056c-.793-1.574-2.208-2.518-4.755-2.518-4.358,0-6.453,4.006-6.453,7.754,0,3.777,2.038,7.182,6.169,7.182a6,6,0,0,0,4.84-2.26h.056V82.5c0,3.09-1.67,5.007-4.472,5.007a10.9,10.9,0,0,1-5.208-1.316l-.283,2.489a14.446,14.446,0,0,0,5.179,1c5.179,0,7.444-2.547,7.444-6.982Zm-29.646,6.552H126.18l2.292-6.867h.057Zm1.5,4.292,1.387,3.748h5.915l-8.037-21.574H125.5l-8.208,21.574h5.887l1.471-3.748ZM107.758,66.509h4.585v-4.75H97.626v4.75h4.585V83.333h5.547ZM86,61.759H80.456V83.333h12.2v-4.75H86Zm-15.617,4.75v-4.75H58.245V83.333H70.386v-4.75H63.792v-3.72h6.255v-4.75H63.792V66.509Zm-34.46,0h1.3c3.566,0,6.085,2.174,6.085,6.037,0,4.207-2.83,6.038-6.141,6.038H35.926ZM30.379,83.333h7.868a10.787,10.787,0,1,0,0-21.574H30.379Z" transform="translate(-30.379 -48.07)" fill="#161615"/>
  <rect id="Rectangle_4513" data-name="Rectangle 4513" width="194.269" height="3.445" fill="#a3a3a3"/>
  <path id="Path_13788" data-name="Path 13788" d="M288.01,63.995h.638c.426,0,.8-.058.8-.586,0-.461-.417-.537-.787-.537h-.647Zm-.722-1.68h1.444c.931,0,1.435.326,1.435,1.154a.976.976,0,0,1-1.017,1.055l1.044,1.717h-.74l-1.007-1.69h-.437v1.69h-.722Zm3.913,1.978a2.6,2.6,0,1,0-2.591,2.794,2.648,2.648,0,0,0,2.591-2.794m-6.019,0a3.428,3.428,0,1,1,3.428,3.465,3.451,3.451,0,0,1-3.428-3.465" transform="translate(-175.49 -47.544)" fill="#161615"/>
</svg>
