<svg width="186" height="49" xmlns="http://www.w3.org/2000/svg"><path d="M91.274 4.67v2.643h-8.887v4.408h7.982v2.51h-7.99v4.46h9.17v2.65H79.57V4.67m26.058 16.652l-4.1-6.265h-.12l-4.096 6.265H93.81l5.72-8.553-5.313-8.1h3.48l3.714 5.62h.12l3.72-5.62h3.48l-5.31 8.1 5.72 8.55m11.93-8.33c-.56.59-1.62.89-3.18.89h-3.26V7.21h2.86c1.53 0 2.65.238 3.36.715.72.477 1.07 1.29 1.07 2.443 0 1.15-.28 2.025-.84 2.62m1.99-6.873c-1.16-.97-3-1.45-5.52-1.45h-5.714v16.65h2.81v-4.883h2.956c2.45 0 4.266-.468 5.45-1.406 1.18-.937 1.773-2.41 1.773-4.43 0-2.018-.58-3.51-1.74-4.48m7.327 8.82l3.022-6.86 3.024 6.86h-6.05zm4.5-10.266h-3l-7.34 16.65h3l1.67-3.79h8.338l1.67 3.79h3l-7.33-16.65zm14.71 2.57v14.08h-2.81V7.243h-5.052V4.67h12.92v2.57M88.83 35.4c-.564.595-1.624.892-3.18.892h-3.265v-6.67h2.86c1.524 0 2.644.237 3.36.714.713.477 1.07 1.29 1.07 2.442 0 1.152-.28 2.025-.845 2.62m1.99-6.873c-1.16-.97-3.003-1.453-5.528-1.453h-5.718v16.654h2.81v-4.884h2.955c2.45 0 4.26-.47 5.44-1.406 1.18-.937 1.77-2.414 1.77-4.432 0-2.017-.58-3.51-1.74-4.48m7.33 8.816l3.02-6.86 3.02 6.86h-6.05zm4.52-10.268h-3l-7.33 16.654h3l1.67-3.79h8.34l1.66 3.79h3l-7.34-16.654zm14.36 16.654V37.15l6.19-10.078h-3.07l-4.55 7.577-4.55-7.58h-3.08l6.19 10.08v6.57m17.49-8.15h-3.507v-5.95h3.573c1.51 0 2.56.2 3.15.61.59.4.884 1.15.884 2.23 0 1.09-.287 1.88-.86 2.37-.57.49-1.65.74-3.24.74zm3.38 2.1c2.4-.72 3.593-2.45 3.593-5.2 0-1.89-.548-3.27-1.64-4.13-1.097-.86-2.91-1.29-5.457-1.29h-6.195v16.66h2.815v-5.6h3.69l3.98 5.6h3.573l-4.36-6.05zm19.52 1.88c-1.135 1.17-2.53 1.76-4.18 1.76s-3.047-.59-4.18-1.77c-1.138-1.18-1.706-2.6-1.706-4.28s.57-3.1 1.71-4.28c1.136-1.18 2.53-1.77 4.18-1.77 1.654 0 3.05.59 4.183 1.76 1.14 1.17 1.707 2.6 1.707 4.27s-.57 3.1-1.7 4.28m2.06-10.425c-1.685-1.646-3.765-2.468-6.24-2.468-2.48 0-4.56.82-6.245 2.463-1.686 1.643-2.528 3.69-2.528 6.146s.84 4.503 2.526 6.146c1.686 1.65 3.766 2.47 6.24 2.47 2.48 0 4.56-.82 6.246-2.47 1.682-1.64 2.524-3.69 2.524-6.143 0-2.457-.84-4.506-2.52-6.15m5.46 14.59V27.07h2.81v13.985h7.6v2.67m3.076 0V27.07h2.81v13.985h7.6v2.67M43.29 22.363V7.235h11.95c4.18 0 7.564 3.385 7.564 7.564 0 4.17-3.385 7.56-7.563 7.56H43.29zM33.08 4.685H.505v7.235h25.34v10.443H3.48v7.235h22.365v11.73H.505v7.233H33.08V29.6h2.974v14.278h7.235v-14.28h11.95c8.17 0 14.8-6.627 14.8-14.8C70.04 6.63 63.41 0 55.24 0H36.055v22.363H33.08V4.685z" fill="#C52D29" fill-rule="evenodd"/></svg>