<svg xmlns="http://www.w3.org/2000/svg" viewBox="0 0 858.2 188.44"><defs><style>.cls-1{fill:#2d3577;}</style></defs><title>Element 1</title><g id="Ebene_2" data-name="Ebene 2"><g id="Ebene_1-2" data-name="Ebene 1"><path class="cls-1" d="M0,101.79q0-36,4.36-52.88t14.87-27.5Q30,10.52,48,5.26T92.69,0h60.37V32.82H89.35q-25.77,0-37.49,10.83T39.74,78.58l113.32.13v32.56H39.74v77.17H0Z"/><path class="cls-1" d="M257.11,32.82q-21.53,0-32.46,10.77T212.54,76.53l109.61.13v32.82H212.29q.12,24.61,10.43,35.38t34.39,10.77h65v32.81h-67q-22.16,0-34.85-3.78a71.31,71.31,0,0,1-45.54-42.81q-7.24-18.52-7.24-44.3,0-50,21.65-73.77T256.34,0h65.81V32.82Z"/><polygon class="cls-1" points="604.53 37.43 576.97 109.99 633.11 109.99 604.53 37.43"/><polygon class="cls-1" points="564.14 143.58 547.35 188.44 663.37 188.44 646.06 143.58 564.14 143.58"/><path class="cls-1" d="M482.26,109.73q18.47-4,28.27-17.69t9.81-35.38q0-29.22-15.9-42.94T454.45,0H356.89V188.44H396.5V114.35h46.66l41.54,74.09h20.61l9.95-23.51Zm-9.74-34.1Q464.83,81,445.09,81H396.5V33.59h48.59q20.12,0,27.62,5.32t7.5,18.26Q480.21,70.25,472.52,75.63Z"/><polygon class="cls-1" points="793.2 91.53 853.84 0 808.08 0 769.49 59.48 730.64 0 684.24 0 747.95 94.22 697.84 165.88 707.47 188.44 729.11 188.44 771.16 122.81 810.76 188.44 858.2 188.44 793.2 91.53"/></g></g></svg>