<svg xmlns="http://www.w3.org/2000/svg" width="146" height="40.888" viewBox="0 0 146 40.888"><g class="b"><path d="M106.551 30.237a9.8 9.8 0 117.171-16.454l8.814-5.091a20.445 20.445 0 10-.1 23.637l-8.835-5.1a9.773 9.773 0 01-7.052 3.008m-24.541-13.06H62.349v7.59h8.906a9.516 9.516 0 01-8.921 5.473 9.8 9.8 0 117.169-16.457l8.816-5.091A20.441 20.441 0 0041.15 20.44a20.115 20.115 0 0020.462 20.445 18.415 18.415 0 0012.8-4.823v3.387h7.594zM37.682 1.638H25.627v13.318H12.059V1.638H0v37.683h12.059v-14.37h13.568v14.37h12.055z" fill="#1d1d1b"/><path d="M139.584 19.577l-13.211.72 5.066 4.748 14.56-.729z" fill="#ffec00"/><path d="M131.439 39.764l14.56-1.041V24.317l-14.56.729z" fill="#ffdc00"/><path d="M126.373 20.297v14.358l5.066 5.108V25.045z" fill="#af9900"/></g></svg>