<?xml version="1.0" encoding="utf-8"?>
<!-- Generator: Adobe Illustrator 19.0.0, SVG Export Plug-In . SVG Version: 6.00 Build 0)  -->
<svg version="1.1" id="Ebene_1" xmlns="http://www.w3.org/2000/svg" xmlns:xlink="http://www.w3.org/1999/xlink" x="0px" y="0px"
	 viewBox="0 0 283.5 103.4" style="enable-background:new 0 0 283.5 103.4;" xml:space="preserve">
<style type="text/css">
	.st0{fill:#124B8C;}
</style>
<polygon class="st0" points="53.6,0 53.6,40.6 21.2,40.6 21.2,0 0,0 0,103.4 21.2,103.4 21.2,58.4 53.6,58.4 53.6,103.4 74.7,103.4 
	74.7,0 "/>
<polygon class="st0" points="188.7,0 175,72.5 157.8,0 137,0 120.3,72.5 106.2,0 84,0 107.3,103.4 129.7,103.4 146.5,30.6 
	163.9,103.4 186.5,103.4 210,0 "/>
<polygon class="st0" points="216.7,0 216.7,18.2 257.2,18.2 213.1,91.8 213.1,103.4 281.8,103.4 281.8,85 240.2,85 283.5,13.7 
	283.5,0 "/>
</svg>
