<svg viewBox="0 0 340 116" fill="none" xmlns="http://www.w3.org/2000/svg">
<path d="M47.2593 71.5284L55.6151 62.3322H47.6187V58.1602H62.2278V61.7108L53.8361 70.9425H62.2638V75.008H47.2593V71.5284Z" fill="#001B35"/>
<path d="M65.4623 58.1778H70.6914V67.8711C70.6914 68.8298 70.925 69.5755 71.3922 70.1258C71.8594 70.6762 72.5602 70.9425 73.4767 70.9425C74.0158 70.9425 74.483 70.8359 74.8963 70.6406C75.3096 70.4454 75.651 70.1613 75.9565 69.824C76.2619 69.4867 76.4596 69.0961 76.6034 68.6345C76.7471 68.1729 76.819 67.7114 76.819 67.232V58.1423H82.0122V74.9725H76.9987L76.8549 73.1794C76.2979 73.8185 75.5611 74.3511 74.6627 74.7772C73.7462 75.2032 72.7938 75.3985 71.8055 75.3985C69.8468 75.3985 68.2835 74.8304 67.1514 73.6765C66.0194 72.5225 65.4443 70.8359 65.4443 68.5813V58.1778H65.4623ZM68.1218 51.041H72.5962V55.142H68.1218V51.041ZM75.1299 51.041H79.6043V55.142H75.1299V51.041Z" fill="#001B35"/>
<path d="M85.9297 58.1772H90.9432L91.1229 60.2898C91.5541 59.7217 92.1651 59.1713 92.9198 58.6387C93.6745 58.1061 94.6628 57.8398 95.8848 57.8398C96.352 57.8398 96.7293 57.8576 97.0707 57.9109C97.3942 57.9641 97.7176 58.0351 98.0411 58.1594L97.2145 62.722C96.6754 62.5622 96.0465 62.4734 95.3277 62.4734C94.0878 62.4734 93.0995 62.8463 92.3268 63.5742C91.5721 64.302 91.1768 65.3495 91.1768 66.681V75.0073H85.9477V58.1772H85.9297Z" fill="#001B35"/>
<path d="M100.18 51.0762H105.768V55.7098H100.18V51.0762ZM100.359 58.1775H105.588V75.0076H100.359V58.1775Z" fill="#001B35"/>
<path d="M124.887 72.7884C124.186 73.5518 123.252 74.2087 122.102 74.7591C120.952 75.3094 119.586 75.5757 118.005 75.5757C116.621 75.5757 115.363 75.3627 114.249 74.9188C113.117 74.475 112.165 73.8536 111.356 73.0547C110.565 72.2558 109.936 71.2972 109.487 70.1965C109.038 69.0958 108.822 67.8885 108.822 66.5748C108.822 65.3321 109.056 64.1603 109.505 63.0774C109.972 61.9944 110.601 61.0358 111.41 60.2191C112.218 59.4025 113.189 58.7633 114.321 58.3018C115.453 57.8402 116.675 57.6094 118.005 57.6094C119.55 57.6094 120.898 57.8579 122.048 58.355C123.18 58.8521 124.15 59.5267 124.923 60.3611L121.76 63.7343C121.365 63.3082 120.898 62.9176 120.341 62.5803C119.784 62.243 119.047 62.0832 118.13 62.0832C117.502 62.0832 116.944 62.2075 116.441 62.456C115.938 62.7046 115.525 63.0419 115.165 63.4502C114.806 63.8585 114.555 64.3379 114.375 64.8705C114.195 65.4031 114.105 65.9712 114.105 66.5748C114.105 67.1251 114.195 67.6755 114.375 68.2081C114.555 68.7407 114.824 69.22 115.165 69.6461C115.525 70.0722 115.938 70.4095 116.441 70.6758C116.944 70.9421 117.502 71.0664 118.13 71.0664C119.029 71.0664 119.784 70.8888 120.377 70.5515C120.97 70.2142 121.473 69.8236 121.832 69.4153L124.887 72.7884Z" fill="#001B35"/>
<path d="M127.277 51.0762H132.47V59.793C133.027 59.1539 133.764 58.6568 134.68 58.3018C135.597 57.9467 136.531 57.7869 137.483 57.7869C139.442 57.7869 141.005 58.355 142.191 59.509C143.359 60.6629 143.952 62.3495 143.952 64.6042V75.0076H138.759V65.3853C138.759 64.4089 138.508 63.6455 138.005 63.0951C137.501 62.5448 136.819 62.2785 135.974 62.2785C135.417 62.2785 134.914 62.385 134.483 62.5803C134.051 62.7756 133.674 63.0596 133.386 63.3792C133.099 63.7165 132.883 64.1071 132.74 64.5509C132.596 64.9948 132.524 65.4741 132.524 65.9712V75.0254H127.295V51.0762H127.277Z" fill="#001B35"/>
<path d="M158.221 86.5309C157.502 86.5309 156.837 87.2765 155.669 88.3417L155.094 93.0819C155.076 93.2771 155.022 93.3482 154.861 93.4014C154.465 93.5257 153.908 93.6322 153.782 93.6322C153.675 93.6322 153.621 93.5612 153.621 93.4547C153.621 93.1174 154.483 87.0812 154.483 86.9392C154.483 86.7439 154.393 86.7262 154.088 86.7262H153.153C153.028 86.7262 152.902 86.6907 152.902 86.5131C152.902 86.1758 154.95 85.1816 155.687 85.1816C155.921 85.1816 156.082 85.2527 156.082 85.5012C156.082 85.7497 155.867 86.7972 155.795 87.312H155.849C156.999 86.1048 157.951 85.1816 159.011 85.1816C159.748 85.1816 160.251 85.6077 160.251 86.4421C160.251 86.6197 160.179 87.1523 160.126 87.312H160.179C161.33 86.1048 162.264 85.1816 163.324 85.1816C164.043 85.1816 164.618 85.6077 164.618 86.4421C164.618 87.0457 163.719 91.7504 163.719 92.0522C163.719 92.1942 163.827 92.2119 164.133 92.2119H165.175C165.409 92.2119 165.48 92.2475 165.48 92.3895C165.48 92.7623 163.324 93.6145 162.569 93.6145C162.336 93.6145 162.174 93.5434 162.174 93.3304C162.174 93.0286 163.091 87.4363 163.091 87.028C163.091 86.6374 162.911 86.4954 162.569 86.4954C161.851 86.4954 161.186 87.241 160 88.3062L159.425 93.0464C159.407 93.2416 159.353 93.3127 159.191 93.3659C158.796 93.4902 158.239 93.5967 158.113 93.5967C158.005 93.5967 157.951 93.5257 157.951 93.4192C157.951 93.0819 158.796 87.2055 158.796 87.0102C158.742 86.6729 158.562 86.5309 158.221 86.5309Z" fill="#001B35"/>
<path d="M168.086 90.1345C168.158 91.7323 168.949 92.4601 169.847 92.4601C171.195 92.4601 172.057 91.3772 172.327 91.3772C172.399 91.3772 172.525 91.4482 172.525 91.608C172.525 92.2826 171.069 93.6496 169.164 93.6496C167.745 93.6496 166.685 92.2471 166.685 90.3297C166.685 86.8856 168.733 85.2168 170.746 85.2168C172.093 85.2168 172.776 85.9624 172.776 86.8323C172.776 88.1994 171.734 88.8917 168.086 90.1345ZM170.368 85.9802C169.47 85.9802 168.194 87.0631 168.086 89.4243C170.71 88.4124 171.249 87.6667 171.249 86.8856C171.249 86.3353 170.997 85.9802 170.368 85.9802Z" fill="#001B35"/>
<path d="M175.525 86.9027C175.525 86.7607 175.436 86.7607 175.13 86.7607H174.124C173.998 86.7607 173.908 86.7252 173.908 86.5476C173.908 86.2103 175.957 85.2161 176.693 85.2161C176.927 85.2161 177.089 85.2871 177.089 85.5534C177.089 85.8552 176.316 91.6251 176.316 92.0157C176.316 92.2287 176.37 92.2464 176.711 92.2464H177.754C177.879 92.2464 178.005 92.282 178.005 92.4595C178.005 92.7968 175.849 93.649 175.094 93.649C174.861 93.649 174.699 93.5779 174.699 93.3116C174.735 92.7968 175.525 87.382 175.525 86.9027ZM176.676 81.5234C177.269 81.5234 177.772 82.0205 177.772 82.6064C177.772 83.1923 177.269 83.6893 176.676 83.6893C176.083 83.6893 175.579 83.1923 175.579 82.6064C175.579 82.0205 176.083 81.5234 176.676 81.5234Z" fill="#001B35"/>
<path d="M186.72 86.4601C186.72 87.0637 185.822 91.7683 185.822 92.0701C185.822 92.2121 185.93 92.2299 186.235 92.2299H187.277C187.511 92.2299 187.583 92.2654 187.583 92.4074C187.583 92.7802 185.427 93.6324 184.672 93.6324C184.438 93.6324 184.276 93.5614 184.276 93.3483C184.276 93.0465 185.193 87.4542 185.193 87.0459C185.193 86.6553 185.013 86.5133 184.672 86.5133C183.953 86.5133 183.216 87.1524 181.994 88.3241L181.419 93.0643C181.401 93.2596 181.347 93.3306 181.186 93.3838C180.79 93.5081 180.233 93.6146 180.108 93.6146C180 93.6146 179.946 93.5436 179.946 93.4371C179.946 93.0998 180.808 87.0637 180.808 86.9216C180.808 86.7263 180.719 86.7086 180.413 86.7086H179.479C179.353 86.7086 179.227 86.6731 179.227 86.4956C179.227 86.1582 181.276 85.1641 182.012 85.1641C182.246 85.1641 182.408 85.2351 182.408 85.4836C182.408 85.7322 182.192 86.7796 182.12 87.2945H182.174C183.324 86.0872 184.402 85.1641 185.462 85.1641C186.163 85.1996 186.72 85.6434 186.72 86.4601Z" fill="#001B35"/>
<path d="M195.471 87.3469C196.352 86.1574 197.34 85.2165 198.436 85.2165C199.694 85.2165 200.629 86.1219 200.629 87.8795C200.629 91.1639 198.418 93.6493 195.597 93.6493C194.501 93.6493 193.297 93.4363 193.297 93.099C193.297 92.6906 194.645 82.5358 194.645 82.1274C194.645 81.7369 194.519 81.5771 194.088 81.5771H193.441C193.261 81.5771 193.171 81.4528 193.171 81.3108C193.171 81.1333 193.243 81.0445 193.477 80.9912L195.058 80.6184C195.31 80.5474 195.579 80.4941 195.723 80.4941C196.082 80.4941 196.172 80.7072 196.172 81.0445C196.172 81.2753 195.777 84.4354 195.418 87.3114L195.471 87.3469ZM194.807 92.5486C195.166 92.8327 195.525 92.9569 195.903 92.9569C197.466 92.9569 199.083 90.72 199.083 88.1458C199.083 87.0096 198.562 86.4237 197.969 86.4237C197.143 86.4237 196.388 87.1516 195.31 88.3588L194.807 92.5486Z" fill="#001B35"/>
<path d="M203.486 86.9027C203.486 86.7607 203.396 86.7607 203.09 86.7607H202.102C201.976 86.7607 201.886 86.7252 201.886 86.5476C201.886 86.2103 203.935 85.2161 204.671 85.2161C204.905 85.2161 205.067 85.2871 205.067 85.5534C205.067 85.8552 204.294 91.6251 204.294 92.0157C204.294 92.2287 204.348 92.2464 204.689 92.2464H205.732C205.857 92.2464 205.983 92.282 205.983 92.4595C205.983 92.7968 203.827 93.649 203.072 93.649C202.839 93.649 202.677 93.5779 202.677 93.3116C202.695 92.7968 203.486 87.382 203.486 86.9027ZM204.654 81.5234C205.247 81.5234 205.75 82.0205 205.75 82.6064C205.75 83.1923 205.247 83.6893 204.654 83.6893C204.061 83.6893 203.557 83.1923 203.557 82.6064C203.557 82.0205 204.061 81.5234 204.654 81.5234Z" fill="#001B35"/>
<path d="M209.128 92.1046C209.128 92.2466 209.218 92.2644 209.524 92.2644H210.602C210.727 92.2644 210.853 92.2999 210.853 92.4774C210.853 92.8147 208.679 93.6669 207.924 93.6669C207.709 93.6669 207.547 93.5959 207.547 93.3473C207.547 92.8503 208.931 82.5533 208.931 82.145C208.931 81.7545 208.805 81.5947 208.373 81.5947H207.727C207.547 81.5947 207.457 81.4704 207.457 81.3284C207.457 81.1508 207.529 81.0621 207.763 81.0088L209.344 80.636C209.595 80.565 209.865 80.5117 210.009 80.5117C210.368 80.5117 210.458 80.7248 210.458 81.0088C210.458 81.4704 209.128 91.501 209.128 92.1046Z" fill="#001B35"/>
<path d="M217.035 91.501C216.154 92.6905 215.13 93.6492 214.034 93.6492C212.776 93.6492 212.003 92.7437 212.003 90.9862C212.003 87.4533 214.447 85.2163 216.675 85.2163C217.071 85.2163 217.466 85.2874 217.844 85.4471C218.077 83.7251 218.257 82.2871 218.257 82.145C218.257 81.7545 218.131 81.5947 217.682 81.5947H217.035C216.855 81.5947 216.765 81.4704 216.765 81.3284C216.765 81.1508 216.837 81.0621 217.071 81.0088L218.652 80.636C218.904 80.565 219.173 80.5117 219.317 80.5117C219.676 80.5117 219.766 80.7248 219.766 81.0621C219.766 81.4704 218.419 91.5188 218.419 92.1046C218.419 92.2466 218.508 92.2644 218.814 92.2644H219.892C220.018 92.2644 220.144 92.2999 220.144 92.4774C220.144 92.8147 217.969 93.6669 217.215 93.6669C216.981 93.6669 216.819 93.5959 216.819 93.3473C216.819 93.2231 216.945 92.3709 217.053 91.5365L217.035 91.501ZM217.7 86.3526C217.34 86.0685 216.945 85.9442 216.568 85.9442C215.058 85.9442 213.531 88.1279 213.531 90.7199C213.531 91.8561 213.908 92.4419 214.501 92.4419C215.328 92.4419 216.065 91.714 217.143 90.5068L217.7 86.3526Z" fill="#001B35"/>
<path d="M223.45 91.6612C223.45 92.1583 223.647 92.3714 224.007 92.3714C224.726 92.3714 225.48 91.679 226.702 90.5073L227.277 85.8204C227.295 85.6251 227.349 85.4831 227.511 85.4476L228.068 85.3233C228.23 85.2878 228.481 85.2168 228.607 85.2168C228.715 85.2168 228.769 85.2878 228.769 85.3943C228.769 85.5186 227.906 91.9275 227.906 92.0873C227.906 92.2293 227.996 92.2649 228.212 92.2649H229.398C229.523 92.2649 229.649 92.3004 229.649 92.4779C229.649 92.8152 227.475 93.6674 226.738 93.6674C226.505 93.6674 226.343 93.5964 226.343 93.3478C226.343 93.0993 226.576 91.75 226.594 91.5192H226.54C225.39 92.7264 224.294 93.6674 223.234 93.6674C222.479 93.6674 221.976 93.2235 221.976 92.2293C221.976 91.5547 222.605 87.3827 222.605 86.9211C222.605 86.7791 222.515 86.7791 222.21 86.7791H221.221C221.096 86.7791 221.006 86.7436 221.006 86.566C221.006 86.2287 223.054 85.2345 223.791 85.2345C224.025 85.2345 224.186 85.3056 224.186 85.5719C224.222 85.9092 223.45 91.1997 223.45 91.6612Z" fill="#001B35"/>
<path d="M238.347 86.4601C238.347 87.0637 237.448 91.7683 237.448 92.0701C237.448 92.2121 237.556 92.2299 237.862 92.2299H238.904C239.137 92.2299 239.209 92.2654 239.209 92.4074C239.209 92.7802 237.053 93.6324 236.298 93.6324C236.065 93.6324 235.903 93.5614 235.903 93.3483C235.903 93.0465 236.819 87.4542 236.819 87.0459C236.819 86.6553 236.64 86.5133 236.298 86.5133C235.579 86.5133 234.843 87.1524 233.621 88.3241L233.046 93.0643C233.028 93.2596 232.974 93.3306 232.812 93.3838C232.417 93.5081 231.86 93.6146 231.734 93.6146C231.626 93.6146 231.572 93.5436 231.572 93.4371C231.572 93.0998 232.435 87.0637 232.435 86.9216C232.435 86.7263 232.345 86.7086 232.04 86.7086H231.105C230.979 86.7086 230.854 86.6731 230.854 86.4956C230.854 86.1582 232.902 85.1641 233.639 85.1641C233.872 85.1641 234.034 85.2351 234.034 85.4836C234.034 85.7322 233.818 86.7796 233.747 87.2945H233.801C234.951 86.0872 236.029 85.1641 237.089 85.1641C237.772 85.1996 238.347 85.6434 238.347 86.4601Z" fill="#001B35"/>
<path d="M241.689 97.4664C239.587 97.4664 238.904 96.49 238.904 95.6023C238.904 94.8389 239.533 94.3241 240.234 94.3241C240.485 94.3241 240.737 94.3951 240.97 94.5549C240.701 94.9277 240.575 95.2828 240.575 95.6201C240.575 96.2947 241.06 96.8095 241.815 96.8095C243.342 96.8095 244.816 95.7798 245.175 93.2411L245.427 91.3593L245.373 91.3415C244.492 92.5132 243.63 93.4364 242.408 93.4364C241.276 93.4364 240.503 92.5487 240.503 90.8444C240.503 87.4003 242.821 85.2344 245.031 85.2344C245.427 85.2344 245.804 85.3054 246.217 85.4652C246.631 85.3764 247.044 85.2344 247.242 85.2344C247.421 85.2344 247.529 85.3054 247.529 85.5184C247.529 85.8735 246.918 90.4894 246.595 93.0636C246.11 96.7385 243.468 97.4664 241.689 97.4664ZM246.02 86.2996C245.66 86.0155 245.301 85.909 244.942 85.909C243.45 85.909 242.048 88.0394 242.048 90.5604C242.048 91.6788 242.426 92.2469 243.019 92.2469C243.738 92.2469 244.42 91.5368 245.499 90.3651L246.02 86.2996Z" fill="#001B35"/>
<path d="M248.733 92.3538C248.733 91.7679 249.128 91.3418 249.739 91.3418C249.865 91.3418 250.027 91.3596 250.17 91.4129C250.17 92.265 250.188 92.9751 251.213 92.9751C251.806 92.9751 252.507 92.7088 252.507 91.981C252.507 90.4187 249.613 88.9629 249.613 87.2941C249.613 86.0691 250.656 85.1992 252.183 85.1992C253.549 85.1992 254.232 85.6963 254.232 86.4597C254.232 87.2586 253.567 87.5249 252.866 87.5249C252.866 86.8148 252.848 85.9093 251.985 85.9093C251.285 85.9093 250.943 86.2644 250.943 86.7793C250.943 87.9687 253.89 89.744 253.89 91.4484C253.89 92.7976 252.542 93.632 250.997 93.632C249.703 93.6675 248.733 93.2237 248.733 92.3538Z" fill="#001B35"/>
<path d="M256.837 86.9389C256.837 86.7968 256.729 86.7613 256.424 86.7613H255.489C255.364 86.7613 255.238 86.7258 255.238 86.5483C255.238 86.211 257.286 85.2168 258.023 85.2168C258.257 85.2168 258.418 85.2878 258.418 85.5186C258.418 85.6784 258.185 87.1697 258.149 87.3294L258.203 87.3472C259.083 86.1577 260.09 85.2168 261.186 85.2168C262.444 85.2168 263.378 86.1222 263.378 87.8798C263.378 91.4127 260.826 93.6496 258.562 93.6496C258.149 93.6496 257.754 93.5786 257.376 93.4188C257.34 93.6319 257.089 95.7622 257.089 95.922C257.089 96.3126 257.484 96.5612 258.472 96.7032C258.652 96.7387 258.724 96.8807 258.724 97.0227C258.724 97.147 258.652 97.2713 258.508 97.2713L254.285 97.4488C254.142 97.4488 254.07 97.3423 254.07 97.218C254.07 97.076 254.142 96.9162 254.321 96.8807C255.166 96.7209 255.579 96.4724 255.669 95.6735C255.705 95.5315 256.837 87.0276 256.837 86.9389ZM257.538 92.4956C257.897 92.7797 258.257 92.904 258.652 92.904C260.215 92.904 261.815 90.7203 261.815 88.1283C261.815 86.9921 261.294 86.4063 260.701 86.4063C259.874 86.4063 259.137 87.1341 258.059 88.3414L257.538 92.4956Z" fill="#001B35"/>
<path d="M271.248 92.2824H272.327C272.452 92.2824 272.578 92.318 272.578 92.4955C272.578 92.8328 270.422 93.6672 269.667 93.6672C269.434 93.6672 269.272 93.5962 269.272 93.3477C269.272 93.1524 269.398 92.4245 269.541 91.5368L269.487 91.5191C268.607 92.7085 267.744 93.6672 266.522 93.6672C265.39 93.6672 264.618 92.7618 264.618 91.0042C264.618 87.4713 266.936 85.2344 269.146 85.2344C269.541 85.2344 269.919 85.3054 270.296 85.4652C270.709 85.3764 271.123 85.2344 271.32 85.2344C271.5 85.2344 271.608 85.3054 271.608 85.5184C271.608 85.8735 270.835 91.6611 270.835 92.0517C270.853 92.2469 270.907 92.2824 271.248 92.2824ZM270.152 86.3528C269.793 86.0688 269.434 85.9445 269.074 85.9445C267.583 85.9445 266.181 88.1282 266.181 90.7202C266.181 91.8564 266.558 92.4422 267.151 92.4422C267.87 92.4422 268.553 91.7143 269.631 90.5071L270.152 86.3528Z" fill="#001B35"/>
<path d="M276.388 88.1638C277.556 86.069 278.149 85.2345 279.137 85.2345C279.784 85.2345 280.126 85.7316 280.126 86.2642C280.126 86.7436 279.856 87.2584 279.263 87.4537C279.173 87.0809 278.868 86.9034 278.688 86.9034C278.383 86.9034 278.095 87.1519 277.772 87.4892L276.352 89.1225L275.849 93.117C275.831 93.3123 275.777 93.3833 275.615 93.4366C275.22 93.5608 274.663 93.6674 274.537 93.6674C274.429 93.6674 274.376 93.5963 274.376 93.4898C274.376 93.1525 275.238 87.1164 275.238 86.9744C275.238 86.7791 275.148 86.7613 274.843 86.7613H273.908C273.783 86.7613 273.657 86.7258 273.657 86.5483C273.657 86.211 275.705 85.2168 276.442 85.2168C276.676 85.2168 276.837 85.2878 276.837 85.5364C276.837 85.7849 276.46 87.7378 276.388 88.1638Z" fill="#001B35"/>
<path d="M282.641 91.9441C282.641 92.1749 282.731 92.2814 283.019 92.2814C283.863 92.2814 284.762 91.5713 285.103 91.5713C285.193 91.5713 285.229 91.6423 285.229 91.7133C285.229 92.3702 283.073 93.6662 281.617 93.6662C281.276 93.6662 281.078 93.4354 281.078 93.1514C281.078 92.8318 281.923 86.4229 281.958 86.1388H280.844C280.593 86.1388 280.503 85.979 280.503 85.8015C280.503 85.5885 280.611 85.3932 280.88 85.3932H282.066L282.192 84.3457C282.21 84.1504 282.264 83.9551 282.48 83.7954L283.27 83.245C283.36 83.174 283.468 83.1562 283.522 83.1562C283.63 83.1562 283.702 83.2273 283.702 83.3338C283.702 83.4403 283.468 85.2334 283.45 85.4109H285.373C285.624 85.4109 285.714 85.5529 285.714 85.7305C285.714 85.9258 285.624 86.1388 285.373 86.1388H283.36C283.306 86.4229 282.641 91.6246 282.641 91.9441Z" fill="#001B35"/>
<path d="M293.872 86.4601C293.872 87.0637 292.974 91.7683 292.974 92.0701C292.974 92.2121 293.082 92.2299 293.387 92.2299H294.429C294.663 92.2299 294.735 92.2654 294.735 92.4074C294.735 92.7802 292.578 93.6324 291.824 93.6324C291.59 93.6324 291.428 93.5614 291.428 93.3483C291.428 93.0465 292.345 87.4542 292.345 87.0459C292.345 86.6553 292.165 86.5133 291.824 86.5133C291.105 86.5133 290.368 87.1524 289.146 88.3241L288.571 93.0643C288.553 93.2596 288.499 93.3306 288.338 93.3838C287.942 93.5081 287.385 93.6146 287.259 93.6146C287.152 93.6146 287.098 93.5436 287.098 93.4371C287.098 93.0998 287.96 87.0637 287.96 86.9216C287.96 86.7263 287.87 86.7086 287.565 86.7086H286.63C286.505 86.7086 286.379 86.6731 286.379 86.4956C286.379 86.1582 288.427 85.1641 289.164 85.1641C289.398 85.1641 289.56 85.2351 289.56 85.4836C289.56 85.7322 289.344 86.7796 289.272 87.2945H289.326C290.476 86.0872 291.554 85.1641 292.614 85.1641C293.297 85.1996 293.872 85.6434 293.872 86.4601Z" fill="#001B35"/>
<path d="M297.394 90.1345C297.466 91.7323 298.257 92.4601 299.155 92.4601C300.503 92.4601 301.366 91.3772 301.635 91.3772C301.707 91.3772 301.833 91.4482 301.833 91.608C301.833 92.2826 300.377 93.6496 298.472 93.6496C297.053 93.6496 295.993 92.2471 295.993 90.3297C295.993 86.8856 298.041 85.2168 300.054 85.2168C301.401 85.2168 302.084 85.9624 302.084 86.8323C302.066 88.1994 301.042 88.8917 297.394 90.1345ZM299.658 85.9802C298.76 85.9802 297.484 87.0631 297.376 89.4243C300 88.4124 300.539 87.6667 300.539 86.8856C300.557 86.3353 300.287 85.9802 299.658 85.9802Z" fill="#001B35"/>
<path d="M306.002 88.1638C307.17 86.069 307.763 85.2345 308.751 85.2345C309.398 85.2345 309.74 85.7316 309.74 86.2642C309.74 86.7436 309.47 87.2584 308.877 87.4537C308.787 87.0809 308.482 86.9034 308.302 86.9034C307.997 86.9034 307.709 87.1519 307.386 87.4892L305.966 89.1225L305.463 93.117C305.445 93.3123 305.391 93.3833 305.229 93.4366C304.834 93.5608 304.277 93.6674 304.151 93.6674C304.043 93.6674 303.989 93.5963 303.989 93.4898C303.989 93.1525 304.852 87.1164 304.852 86.9744C304.852 86.7791 304.762 86.7613 304.456 86.7613H303.522C303.396 86.7613 303.271 86.7258 303.271 86.5483C303.271 86.211 305.319 85.2168 306.056 85.2168C306.289 85.2168 306.451 85.2878 306.451 85.5364C306.451 85.7849 306.074 87.7378 306.002 88.1638Z" fill="#001B35"/>
<path d="M310.045 91.3242C310.692 91.3242 311.213 91.8391 311.213 92.4782C311.213 93.0995 310.692 93.5966 310.045 93.5966C309.416 93.5966 308.913 93.0995 308.913 92.4782C308.913 91.8213 309.416 91.3242 310.045 91.3242Z" fill="#001B35"/>
<path d="M68.8593 22.3867H74.0884V30.7485C74.5736 30.2514 75.2384 29.8431 76.065 29.559C76.8916 29.275 77.7362 29.133 78.5628 29.133C79.7667 29.133 80.8449 29.3638 81.7973 29.8076C82.7497 30.2692 83.5403 30.8728 84.1693 31.6539C84.8162 32.4351 85.3013 33.3227 85.6427 34.3524C85.9842 35.3644 86.1459 36.4473 86.1459 37.6013C86.1459 38.9683 85.9303 40.2288 85.481 41.365C85.0318 42.5189 84.3849 43.4954 83.5403 44.312C82.6958 45.1287 81.6535 45.7678 80.4136 46.2116C79.1737 46.6555 77.7721 46.8863 76.1908 46.8863C74.7353 46.8863 73.3696 46.762 72.0578 46.4957C70.764 46.2294 69.6859 45.9631 68.8413 45.6613V22.3867H68.8593ZM74.1064 42.2527C74.3939 42.3769 74.7173 42.4657 75.0767 42.519C75.4361 42.5722 75.9213 42.6077 76.5502 42.6077C77.9338 42.6077 79.012 42.1639 79.7667 41.2762C80.5215 40.3886 80.9168 39.2346 80.9168 37.7966C80.9168 37.264 80.8449 36.7491 80.7191 36.252C80.5933 35.7549 80.3777 35.2934 80.1261 34.9028C79.8566 34.5122 79.5152 34.1927 79.0839 33.9264C78.6526 33.6778 78.1495 33.5535 77.5385 33.5535C76.3705 33.5535 75.508 33.8731 74.9509 34.5122C74.3939 35.1513 74.1243 35.9857 74.1243 37.0509V42.2527H74.1064Z" fill="#001B35"/>
<path d="M89.2188 29.5062H94.4479V39.1995C94.4479 40.1582 94.6815 40.9038 95.1487 41.4542C95.6159 42.0045 96.3167 42.2708 97.2331 42.2708C97.7722 42.2708 98.2394 42.1643 98.6527 41.969C99.066 41.7737 99.4074 41.4897 99.7129 41.1524C100.018 40.8151 100.216 40.4245 100.36 39.9629C100.504 39.5013 100.575 39.0397 100.575 38.5604V29.4707H105.769V46.3008H100.755L100.629 44.5432C100.072 45.1824 99.3355 45.715 98.4371 46.141C97.5206 46.5671 96.5682 46.7624 95.5799 46.7624C93.6213 46.7624 92.0579 46.1943 90.9258 45.0403C89.7938 43.8864 89.2188 42.1998 89.2188 39.9451V29.5062Z" fill="#001B35"/>
<path d="M111.411 41.1338C111.968 41.6309 112.705 42.057 113.603 42.3943C114.52 42.7316 115.382 42.8914 116.245 42.8914C117.017 42.8914 117.664 42.8026 118.167 42.6074C118.67 42.4121 118.922 42.0393 118.922 41.4889C118.922 41.2759 118.868 41.0806 118.76 40.903C118.653 40.7255 118.455 40.548 118.167 40.406C117.88 40.2462 117.467 40.0864 116.945 39.9266C116.424 39.7668 115.759 39.5715 114.969 39.3585C114.322 39.1987 113.675 38.9679 113.028 38.7016C112.381 38.4353 111.824 38.0803 111.321 37.6719C110.818 37.2636 110.423 36.7665 110.117 36.1984C109.812 35.6303 109.668 34.9557 109.668 34.1923C109.668 33.3934 109.848 32.6833 110.207 32.0619C110.566 31.4405 111.069 30.8724 111.716 30.4108C112.363 29.9493 113.118 29.5942 113.998 29.3279C114.879 29.0616 115.831 28.9551 116.856 28.9551C118.311 28.9551 119.587 29.1149 120.665 29.4344C121.743 29.754 122.768 30.2333 123.684 30.8547L121.474 34.2633C120.917 33.9082 120.288 33.5887 119.569 33.2869C118.85 33.0028 118.042 32.8608 117.143 32.8608C116.352 32.8608 115.759 32.9673 115.4 33.1981C115.041 33.4289 114.861 33.7307 114.861 34.1213C114.861 34.6716 115.238 35.08 115.993 35.3463C116.748 35.6126 117.754 35.9144 119.048 36.2339C120.791 36.7133 122.067 37.3701 122.839 38.2045C123.63 39.0389 124.025 40.1574 124.025 41.5422C124.025 42.4831 123.81 43.282 123.396 43.9566C122.965 44.6312 122.408 45.1816 121.689 45.6254C120.971 46.0693 120.162 46.4066 119.246 46.6196C118.329 46.8326 117.413 46.9392 116.46 46.9392C114.933 46.9392 113.495 46.7439 112.13 46.3356C110.764 45.9272 109.668 45.3059 108.823 44.4715L111.411 41.1338Z" fill="#001B35"/>
<path d="M127.152 22.3867H132.741V27.0203H127.152V22.3867ZM127.332 29.5058H132.561V46.3359H127.332V29.5058Z" fill="#001B35"/>
<path d="M136.604 29.5058H141.617L141.761 31.3344C142.318 30.6598 143.055 30.1272 143.954 29.7188C144.852 29.3105 145.804 29.1152 146.811 29.1152C148.769 29.1152 150.333 29.6833 151.483 30.8373C152.633 31.9913 153.208 33.6778 153.208 35.9325V46.3359H147.979V36.6426C147.979 35.7017 147.745 34.9738 147.278 34.4235C146.811 33.8731 146.146 33.6068 145.301 33.6068C144.726 33.6068 144.205 33.7133 143.774 33.9086C143.343 34.1039 142.965 34.388 142.678 34.7075C142.39 35.0448 142.175 35.4354 142.031 35.8792C141.887 36.3231 141.815 36.8024 141.815 37.2995V46.3537H136.622V29.5058H136.604Z" fill="#001B35"/>
<path d="M173.082 44.5075C172.884 44.6318 172.597 44.827 172.201 45.0933C171.806 45.3596 171.303 45.6437 170.692 45.8922C170.081 46.1585 169.344 46.3893 168.5 46.5846C167.655 46.7799 166.685 46.8864 165.589 46.8864C164.133 46.8864 162.821 46.6734 161.671 46.2296C160.503 45.7857 159.515 45.1644 158.706 44.3832C157.898 43.5843 157.269 42.6434 156.855 41.5249C156.424 40.4065 156.227 39.1815 156.227 37.85C156.227 36.6783 156.424 35.5421 156.82 34.4591C157.215 33.3762 157.79 32.4175 158.545 31.6008C159.299 30.7842 160.216 30.1273 161.312 29.648C162.408 29.1686 163.63 28.9023 165.014 28.9023C166.397 28.9023 167.601 29.1509 168.643 29.6302C169.686 30.1096 170.566 30.7664 171.285 31.6186C172.004 32.4708 172.543 33.4827 172.902 34.6722C173.262 35.8616 173.441 37.1576 173.441 38.5601V39.43H161.312C161.33 40.3355 161.743 41.1344 162.534 41.809C163.324 42.4836 164.403 42.8387 165.786 42.8387C167.134 42.8387 168.248 42.6434 169.093 42.2528C169.937 41.8622 170.566 41.5072 170.944 41.2231L173.082 44.5075ZM168.5 36.1457C168.5 35.7906 168.428 35.4178 168.284 35.045C168.14 34.6722 167.925 34.3349 167.637 34.0153C167.35 33.7135 166.99 33.4472 166.541 33.2519C166.11 33.0566 165.589 32.9501 164.978 32.9501C164.367 32.9501 163.846 33.0566 163.378 33.2519C162.911 33.4472 162.534 33.7135 162.228 34.0153C161.923 34.3349 161.689 34.6722 161.546 35.045C161.402 35.4178 161.312 35.7906 161.312 36.1457H168.5Z" fill="#001B35"/>
<path d="M178.167 41.1338C178.724 41.6309 179.461 42.057 180.359 42.3943C181.276 42.7316 182.138 42.8914 183.001 42.8914C183.774 42.8914 184.421 42.8026 184.924 42.6074C185.427 42.4121 185.678 42.0393 185.678 41.4889C185.678 41.2759 185.625 41.0806 185.517 40.903C185.409 40.7255 185.211 40.548 184.924 40.406C184.636 40.2462 184.223 40.0864 183.702 39.9266C183.181 39.7668 182.516 39.5715 181.725 39.3585C181.078 39.1987 180.431 38.9679 179.784 38.7016C179.138 38.4353 178.58 38.0803 178.077 37.6719C177.574 37.2636 177.179 36.7665 176.873 36.1984C176.568 35.6303 176.424 34.9557 176.424 34.1923C176.424 33.3934 176.604 32.6833 176.963 32.0619C177.323 31.4405 177.826 30.8724 178.473 30.4108C179.12 29.9493 179.874 29.5942 180.755 29.3279C181.635 29.0616 182.588 28.9551 183.612 28.9551C185.067 28.9551 186.343 29.1149 187.421 29.4344C188.5 29.754 189.524 30.2333 190.44 30.8547L188.23 34.2633C187.673 33.9082 187.044 33.5887 186.325 33.2869C185.607 33.0028 184.798 32.8608 183.899 32.8608C183.109 32.8608 182.516 32.9673 182.156 33.1981C181.797 33.4289 181.617 33.7307 181.617 34.1213C181.617 34.6716 181.995 35.08 182.749 35.3463C183.504 35.6126 184.51 35.9144 185.804 36.2339C187.547 36.7133 188.823 37.3701 189.596 38.2045C190.386 39.0389 190.782 40.1574 190.782 41.5422C190.782 42.4831 190.566 43.282 190.153 43.9566C189.722 44.6312 189.164 45.1816 188.446 45.6254C187.727 46.0693 186.918 46.4066 186.002 46.6196C185.085 46.8326 184.169 46.9392 183.217 46.9392C181.689 46.9392 180.252 46.7439 178.886 46.3356C177.52 45.9272 176.424 45.3059 175.58 44.4715L178.167 41.1338Z" fill="#001B35"/>
<path d="M195.508 41.1338C196.065 41.6309 196.801 42.057 197.7 42.3943C198.616 42.7316 199.479 42.8914 200.341 42.8914C201.114 42.8914 201.761 42.8026 202.264 42.6074C202.767 42.4121 203.019 42.0393 203.019 41.4889C203.019 41.2759 202.965 41.0806 202.857 40.903C202.749 40.7255 202.552 40.548 202.264 40.406C201.977 40.2462 201.563 40.0864 201.042 39.9266C200.521 39.7668 199.856 39.5715 199.065 39.3585C198.419 39.1987 197.772 38.9679 197.125 38.7016C196.478 38.4353 195.921 38.0803 195.418 37.6719C194.915 37.2636 194.519 36.7665 194.214 36.1984C193.908 35.6303 193.764 34.9557 193.764 34.1923C193.764 33.3934 193.944 32.6833 194.304 32.0619C194.663 31.4405 195.166 30.8724 195.813 30.4108C196.46 29.9493 197.215 29.5942 198.095 29.3279C198.976 29.0616 199.928 28.9551 200.952 28.9551C202.408 28.9551 203.684 29.1149 204.762 29.4344C205.84 29.754 206.864 30.2333 207.781 30.8547L205.57 34.2633C205.013 33.9082 204.384 33.5887 203.666 33.2869C202.947 33.0028 202.138 32.8608 201.24 32.8608C200.449 32.8608 199.856 32.9673 199.497 33.1981C199.137 33.4289 198.958 33.7307 198.958 34.1213C198.958 34.6716 199.335 35.08 200.09 35.3463C200.844 35.6126 201.851 35.9144 203.145 36.2339C204.888 36.7133 206.163 37.3701 206.936 38.2045C207.727 39.0389 208.122 40.1574 208.122 41.5422C208.122 42.4831 207.906 43.282 207.493 43.9566C207.062 44.6312 206.505 45.1816 205.786 45.6254C205.067 46.0693 204.259 46.4066 203.342 46.6196C202.426 46.8326 201.509 46.9392 200.557 46.9392C199.03 46.9392 197.592 46.7439 196.226 46.3356C194.861 45.9272 193.764 45.3059 192.92 44.4715L195.508 41.1338Z" fill="#001B35"/>
<path d="M219.174 41.1338C219.731 41.6309 220.467 42.057 221.366 42.3943C222.282 42.7316 223.145 42.8914 224.007 42.8914C224.78 42.8914 225.427 42.8026 225.93 42.6074C226.433 42.4121 226.685 42.0393 226.685 41.4889C226.685 41.2759 226.631 41.0806 226.523 40.903C226.415 40.7255 226.218 40.548 225.93 40.406C225.643 40.2462 225.229 40.0864 224.708 39.9266C224.187 39.7668 223.522 39.5715 222.731 39.3585C222.085 39.1987 221.438 38.9679 220.791 38.7016C220.144 38.4353 219.587 38.0803 219.084 37.6719C218.581 37.2636 218.185 36.7665 217.88 36.1984C217.574 35.6303 217.431 34.9557 217.431 34.1923C217.431 33.3934 217.61 32.6833 217.97 32.0619C218.329 31.4405 218.832 30.8724 219.479 30.4108C220.126 29.9493 220.881 29.5942 221.761 29.3279C222.642 29.0616 223.594 28.9551 224.618 28.9551C226.074 28.9551 227.35 29.1149 228.428 29.4344C229.506 29.754 230.53 30.2333 231.447 30.8547L229.236 34.2633C228.679 33.9082 228.05 33.5887 227.332 33.2869C226.613 33.0028 225.804 32.8608 224.906 32.8608C224.115 32.8608 223.522 32.9673 223.163 33.1981C222.803 33.4289 222.624 33.7307 222.624 34.1213C222.624 34.6716 223.001 35.08 223.756 35.3463C224.51 35.6126 225.517 35.9144 226.811 36.2339C228.554 36.7133 229.829 37.3701 230.602 38.2045C231.393 39.0389 231.788 40.1574 231.788 41.5422C231.788 42.4831 231.572 43.282 231.159 43.9566C230.728 44.6312 230.171 45.1816 229.452 45.6254C228.733 46.0693 227.925 46.4066 227.008 46.6196C226.092 46.8326 225.175 46.9392 224.223 46.9392C222.696 46.9392 221.258 46.7439 219.892 46.3356C218.527 45.9272 217.431 45.3059 216.586 44.4715L219.174 41.1338Z" fill="#001B35"/>
<path d="M250.243 44.1166C249.542 44.88 248.608 45.5368 247.458 46.0872C246.308 46.6375 244.942 46.9038 243.361 46.9038C241.977 46.9038 240.719 46.6908 239.605 46.247C238.473 45.8031 237.521 45.1818 236.712 44.3829C235.921 43.584 235.292 42.6253 234.843 41.5246C234.394 40.4239 234.178 39.2167 234.178 37.9029C234.178 36.6602 234.412 35.4885 234.861 34.4055C235.328 33.3226 235.957 32.3639 236.766 31.5472C237.574 30.7306 238.545 30.0915 239.677 29.6299C240.809 29.1683 242.031 28.9375 243.361 28.9375C244.906 28.9375 246.254 29.186 247.404 29.6831C248.536 30.1802 249.506 30.8549 250.279 31.6893L247.116 35.0624C246.721 34.6363 246.254 34.2457 245.697 33.9084C245.14 33.5711 244.403 33.4113 243.486 33.4113C242.857 33.4113 242.3 33.5356 241.797 33.7842C241.294 34.0327 240.881 34.37 240.521 34.7783C240.162 35.1867 239.91 35.666 239.731 36.1986C239.551 36.7312 239.461 37.2993 239.461 37.9029C239.461 38.4533 239.551 39.0036 239.731 39.5362C239.91 40.0688 240.18 40.5482 240.521 40.9742C240.881 41.4003 241.294 41.7376 241.797 42.0039C242.3 42.2702 242.857 42.3945 243.486 42.3945C244.385 42.3945 245.14 42.217 245.733 41.8797C246.326 41.5423 246.829 41.1518 247.188 40.7434L250.243 44.1166Z" fill="#001B35"/>
<path d="M252.633 22.3867H257.826V31.1036C258.383 30.4645 259.12 29.9674 260.036 29.6123C260.953 29.2572 261.887 29.0975 262.839 29.0975C264.798 29.0975 266.361 29.6656 267.547 30.8195C268.715 31.9735 269.308 33.6601 269.308 35.9147V46.3182H264.115V36.6959C264.115 35.7194 263.864 34.956 263.361 34.4057C262.857 33.8553 262.175 33.589 261.33 33.589C260.773 33.589 260.27 33.6956 259.839 33.8909C259.407 34.0861 259.03 34.3702 258.742 34.6898C258.455 35.0271 258.239 35.4176 258.096 35.8615C257.952 36.3053 257.88 36.7846 257.88 37.2817V46.3359H252.651V22.3867H252.633Z" fill="#001B35"/>
<path d="M272.363 37.9029C272.363 36.6602 272.579 35.4885 273.028 34.4055C273.477 33.3226 274.106 32.3639 274.897 31.5472C275.706 30.7306 276.658 30.0915 277.79 29.6299C278.922 29.1683 280.162 28.9375 281.51 28.9375C282.857 28.9375 284.097 29.1683 285.211 29.6299C286.326 30.0915 287.278 30.7306 288.087 31.5472C288.895 32.3639 289.506 33.3048 289.955 34.4055C290.405 35.4885 290.62 36.6602 290.62 37.9029C290.62 39.1456 290.405 40.3174 289.955 41.4003C289.506 42.4833 288.877 43.4419 288.087 44.2586C287.296 45.0752 286.326 45.7144 285.211 46.1937C284.097 46.673 282.857 46.9038 281.51 46.9038C280.162 46.9038 278.904 46.673 277.79 46.1937C276.676 45.7144 275.706 45.0752 274.897 44.2586C274.106 43.4419 273.477 42.501 273.028 41.4003C272.597 40.3174 272.363 39.1456 272.363 37.9029ZM281.528 42.43C282.175 42.43 282.768 42.3057 283.271 42.0572C283.774 41.8086 284.205 41.4713 284.565 41.0275C284.924 40.6014 285.175 40.1043 285.355 39.5717C285.517 39.0391 285.607 38.471 285.607 37.9029C285.607 37.3348 285.517 36.7667 285.355 36.2341C285.193 35.7015 284.924 35.2222 284.565 34.7961C284.205 34.37 283.792 34.0504 283.271 33.7842C282.75 33.5179 282.175 33.4113 281.528 33.4113C280.881 33.4113 280.288 33.5356 279.767 33.7842C279.246 34.0327 278.814 34.37 278.473 34.7961C278.131 35.2222 277.88 35.7015 277.682 36.2341C277.503 36.7667 277.413 37.3348 277.413 37.9029C277.413 38.471 277.503 39.0391 277.682 39.5717C277.862 40.1043 278.131 40.6014 278.473 41.0275C278.814 41.4536 279.246 41.7909 279.767 42.0572C280.288 42.3235 280.863 42.43 281.528 42.43Z" fill="#001B35"/>
<path d="M293.01 37.9029C293.01 36.6602 293.225 35.4885 293.675 34.4055C294.124 33.3226 294.753 32.3639 295.543 31.5472C296.352 30.7306 297.304 30.0915 298.437 29.6299C299.569 29.1683 300.808 28.9375 302.156 28.9375C303.504 28.9375 304.744 29.1683 305.858 29.6299C306.972 30.0915 307.924 30.7306 308.733 31.5472C309.542 32.3639 310.153 33.3048 310.602 34.4055C311.051 35.4885 311.267 36.6602 311.267 37.9029C311.267 39.1456 311.051 40.3174 310.602 41.4003C310.153 42.4833 309.524 43.4419 308.733 44.2586C307.942 45.0752 306.972 45.7144 305.858 46.1937C304.744 46.673 303.504 46.9038 302.156 46.9038C300.808 46.9038 299.551 46.673 298.437 46.1937C297.322 45.7144 296.352 45.0752 295.543 44.2586C294.753 43.4419 294.124 42.501 293.675 41.4003C293.225 40.3174 293.01 39.1456 293.01 37.9029ZM302.156 42.43C302.803 42.43 303.396 42.3057 303.899 42.0572C304.402 41.8086 304.834 41.4713 305.193 41.0275C305.552 40.6014 305.804 40.1043 305.984 39.5717C306.145 39.0391 306.235 38.471 306.235 37.9029C306.235 37.3348 306.145 36.7667 305.984 36.2341C305.822 35.7015 305.552 35.2222 305.193 34.7961C304.834 34.37 304.42 34.0504 303.899 33.7842C303.378 33.5179 302.803 33.4113 302.156 33.4113C301.509 33.4113 300.916 33.5356 300.395 33.7842C299.874 34.0327 299.443 34.37 299.101 34.7961C298.76 35.2222 298.508 35.7015 298.311 36.2341C298.131 36.7667 298.041 37.3348 298.041 37.9029C298.041 38.471 298.131 39.0391 298.311 39.5717C298.49 40.1043 298.76 40.6014 299.101 41.0275C299.443 41.4536 299.874 41.7909 300.395 42.0572C300.916 42.3235 301.509 42.43 302.156 42.43Z" fill="#001B35"/>
<path d="M314.34 22.3867H319.569V46.3359H314.34V22.3867Z" fill="#001B35"/>
<path d="M40.5933 29.4883H46.4154L50.4585 40.5486L54.3399 29.4883H60.0542L52.7586 46.3184H47.817L40.5933 29.4883Z" fill="#001B35"/>
<path d="M22.6416 22.3867H27.8348V34.814L33.0998 29.5058H39.0118L33.603 34.9738L39.2274 46.3537H33.4053L29.9911 38.6132L27.8348 40.7969V46.3537H22.6416V22.3867Z" fill="#001B35"/>
</svg>
