<svg width="136" height="30" xmlns="http://www.w3.org/2000/svg" xmlns:xlink="http://www.w3.org/1999/xlink"><defs><path id="a" d="M.074.04h16.708v27.656H.074z"/></defs><g fill="none" fill-rule="evenodd"><path d="M13.27 29.69c-.537 0-1.165-.305-1.524-1.008l-2.929-5.623C8.1 21.653 6.874 19.88 5.26 19.483l-1.554 1.62v6.112c0 1.253-.03 2.476-1.823 2.476C.03 29.69 0 28.529 0 27.062V9.337C0 8.022 0 6.86 1.793 6.86c1.883 0 1.913 1.161 1.913 2.476v6.968l8.578-8.924c.36-.367.778-.52 1.136-.52.837 0 1.644.825 1.644 1.68 0 .398-.12.734-.418 1.07L7.86 16.795c2.959 1.375 5.26 6.356 6.785 9.443l.328.672c.18.337.24.642.24.917 0 1.07-.957 1.865-1.943 1.865m21.865-.002c-.986 0-1.703-.824-1.763-1.803l-.478-14.18-2.451 7.732c-.359 1.192-.897 1.68-2.122 1.68-1.196 0-1.973-.488-2.331-1.68l-2.422-7.67-.328 14.149c-.03.948-.807 1.773-1.764 1.773-1.046 0-1.793-.825-1.763-1.865l.597-19.193c.03-1.466 1.316-1.772 2.362-1.772 1.076 0 2.062.336 2.48 1.59l3.199 9.993 3.198-9.994c.389-1.283 1.285-1.59 2.39-1.59 1.137 0 2.422.276 2.452 1.773l.508 19.254c.06 1.01-.747 1.804-1.764 1.804m15.751.061c-4.783 0-7.92-3.301-7.92-8.344V9.336c0-1.314 0-2.475 1.793-2.475 1.882 0 1.912 1.161 1.912 2.475V20.4c0 3.3.718 5.837 4.215 5.837 3.467 0 4.184-2.537 4.184-5.837V9.336c0-1.253.03-2.475 1.823-2.475 1.853 0 1.883 1.222 1.883 2.475v12.072c0 5.043-3.108 8.344-7.89 8.344m34.98-23.999c.736.24.584 1.379 1.134 1.807-2.093 5.804.83 16.63-4.047 20.206-3.838-3.499-6.769-7.918-10.362-11.663-.156 2.872-.205 7.012-.324 10.184-.034.91.425 2.163-.647 2.465-1.597-3.214.029-10.938-.971-14.786-.039-.618-.61-.695-.649-1.314.765-1.03-.07-3.684 1.782-3.613.443.743.717 1.62.485 2.628 3.234 3.687 6.394 8.834 10.362 12.32 2.153-5.034 1.357-12.71 1.942-17.74.516-.08.678-.519 1.295-.494m38.972 1.977c-6.124 3.367-12.092 8.003-15.387 11.544 1.23 2.45 2.935 4.422 4.19 6.848-.313.714-.742 1.314-1.45 1.63-1.836-2.003-2.981-4.702-4.512-7.01-1.307 1.069-2.325 2.43-3.063 4.074-3.97-.56.484-4.78 1.613-5.868-.875-2.335-2.688-4.264-2.096-7.174.573-.373.81-.128 1.773-.162.19 2.413 1.291 3.91 2.095 5.706 5.066-3.602 10.246-7.616 16.999-10.566" fill="#11110F"/><g transform="translate(119 .752)"><mask id="b" fill="#fff"><use xlink:href="#a"/></mask><path d="M5.006 3.762c-.024 3.28-.295 6.094-.493 10.118-1.502.544-4.138.611-4.403 2.185-.198 1.179.43 1.642 1.276 1.655 1.037.017 2.438-1.309 2.97-1.488-.084 3.969-.604 7.587-.157 11.157.093.687 1.735.086 2.36-.505.11-2.93-.25-7.651-.039-11.207 2.17-.37 3.86-.898 5.386-1.125 1.99-.297 4.053.304 4.876-1.344-.968-2.567-4.256-1.127-7.176-.37-1.066.278-2.094.267-2.938.484.246-4.453.584-9.396.362-12.988C5.76-.605 4.818.84 4.993 2.71l.013 1.052z" fill="#11110F" mask="url(#b)"/></g><path d="M93.413 18.539c.61-.942 1.155-1.953 1.393-3.29-1.97-.39-1.451 2.44-1.393 3.29m2.633 7.402c1.178-.776 1.544-2.417 2.013-3.947.324.094.443.406.93.329.147 2.5-1.113 4.087-2.478 5.429-6.316-.399-6.599-9.89-3.873-14.642 1.774.178 3.424-1.193 4.182.492 1.254 2.79-2.583 6.056-3.407 8.227.443 1.832 1.16 3.373 2.633 4.112" fill="#11110F"/></g></svg>